<?xml version="1.0" standalone="no"?>
<!DOCTYPE svg PUBLIC "-//W3C//DTD SVG 20010904//EN"
 "http://www.w3.org/TR/2001/REC-SVG-20010904/DTD/svg10.dtd">
<svg version="1.0" xmlns="http://www.w3.org/2000/svg"
 width="297.000000pt" height="245.000000pt" viewBox="0 0 297.000000 245.000000"
 preserveAspectRatio="xMidYMid meet">

<g transform="translate(0.000000,245.000000) scale(0.100000,-0.100000)"
fill="#000000" stroke="none">
<path d="M0 1225 l0 -1225 1485 0 1485 0 0 1225 0 1225 -1485 0 -1485 0 0
-1225z m1568 781 l58 -139 65 -21 c203 -66 358 -222 425 -425 l20 -63 130 -55
c71 -30 140 -59 154 -64 22 -9 9 -17 -129 -77 l-154 -67 -22 -65 c-38 -114
-98 -208 -179 -283 -57 -53 -172 -120 -246 -142 -70 -21 -66 -15 -145 -208
-26 -64 -50 -115 -53 -112 -3 2 -33 71 -67 152 l-63 147 -64 21 c-210 68 -365
225 -427 433 l-16 54 -125 54 c-69 30 -138 61 -155 68 l-30 14 50 22 c28 12
97 42 154 66 l105 43 25 79 c62 190 246 365 434 412 l44 12 69 160 c52 124 70
157 76 142 4 -10 34 -82 66 -158z m-786 28 c76 -39 102 -174 32 -174 -36 0
-92 26 -115 52 -23 28 -42 93 -34 118 10 31 59 33 117 4z m1519 16 c21 -12 25
-52 10 -93 -15 -39 -67 -84 -106 -91 -56 -11 -75 -1 -75 41 0 69 47 127 114
144 17 4 32 7 34 8 2 1 12 -4 23 -9z m-24 -1505 c30 -34 50 -102 36 -123 -23
-37 -106 -21 -153 30 -24 26 -44 91 -35 118 3 10 14 20 23 23 30 6 106 -22
129 -48z m-1423 28 c21 -67 -46 -157 -127 -170 -52 -8 -71 10 -63 60 13 76 69
127 143 127 31 0 43 -4 47 -17z"/>
<path d="M1460 1962 c-61 -144 -152 -351 -194 -447 l-23 -50 -269 -114 c-148
-62 -273 -116 -277 -120 -7 -7 116 -63 458 -208 44 -19 85 -40 92 -46 6 -7 62
-131 124 -277 62 -146 115 -268 119 -273 3 -4 57 115 120 265 62 150 116 278
121 283 4 6 134 64 288 130 154 66 277 123 273 126 -4 3 -59 27 -122 53 -63
27 -173 73 -245 103 -71 29 -144 60 -160 67 -28 12 -42 40 -151 300 l-121 285
-33 -77z"/>
<path d="M1264 1777 c-137 -60 -240 -159 -305 -293 -23 -47 -39 -87 -37 -89 4
-4 65 20 213 84 l70 30 33 78 c18 43 46 108 62 146 16 37 26 67 22 67 -4 -1
-30 -11 -58 -23z"/>
<path d="M1660 1793 c0 -4 26 -70 59 -147 l58 -138 143 -60 c78 -32 144 -57
147 -54 9 8 -66 157 -101 199 -20 24 -34 47 -31 50 3 4 2 5 -1 2 -4 -2 -30 16
-58 40 -67 57 -216 132 -216 108z"/>
<path d="M920 1058 c0 -7 18 -48 39 -92 65 -134 173 -237 306 -291 33 -13 61
-22 62 -21 7 7 -116 281 -129 288 -7 4 -33 16 -58 27 -25 11 -84 37 -132 59
-49 23 -88 36 -88 30z"/>
<path d="M1920 1004 l-145 -62 -61 -144 c-34 -78 -58 -145 -53 -146 5 -2 49
16 97 39 136 68 249 193 297 329 8 24 14 44 13 45 -2 1 -68 -27 -148 -61z"/>
</g>
</svg>
